<svg width="96" height="96" viewBox="0 0 96 96" fill="none" xmlns="http://www.w3.org/2000/svg"><path d="M12.5428 15.7959C12.5428 15.7959 9.66627 33.5856 12.6719 42.7387H42.6239C42.6239 42.7387 40.1279 28.5517 42.8858 15.7959C42.8858 15.7959 12.3438 15.9914 12.5428 15.7959Z" fill="#DDDEE1"></path><path d="M47.1863 15.7959C47.1863 15.7959 44.3098 33.5856 47.3155 42.7387H77.2675C77.2675 42.7387 74.7715 28.5517 77.5293 15.7959C77.5293 15.7959 46.9874 15.9914 47.1863 15.7959Z" fill="#DDDEE1"></path><path d="M12.5428 45.4199C12.5428 45.4199 9.66627 63.2096 12.6719 72.3628H42.6239C42.6239 72.3628 40.1279 58.1757 42.8858 45.4199C42.8858 45.4199 12.3438 45.6154 12.5428 45.4199Z" fill="#DDDEE1"></path><path d="M54.9259 48.9873C54.9259 48.9873 48.6597 65.8833 49.8431 75.4484L79.2296 81.2433C79.2296 81.2433 79.5263 66.8433 84.6998 54.859C84.6998 54.859 54.6989 49.1444 54.9293 48.9873H54.9259Z" fill="#1868DB"></path><path d="M58.0503 63.1572L75.5328 66.8017" stroke="white" stroke-width="7" stroke-miterlimit="10"></path><path d="M68.6137 56.2383L64.9692 73.7173" stroke="white" stroke-width="7" stroke-miterlimit="10"></path></svg>